<?xml version="1.0" encoding="UTF-8"?>
<svg xmlns="http://www.w3.org/2000/svg" xmlns:xlink="http://www.w3.org/1999/xlink" width="23pt" height="23pt" viewBox="0 0 23 23" version="1.1">
<g id="surface1">
<path style=" stroke:none;fill-rule:nonzero;fill:rgb(100%,84.313725%,0%);fill-opacity:1;" d="M 20.273438 9.621094 C 20.273438 9.359375 20.078125 9.199219 19.683594 9.136719 L 14.394531 8.367188 L 12.019531 3.570312 C 11.886719 3.28125 11.714844 3.136719 11.503906 3.136719 C 11.292969 3.136719 11.121094 3.28125 10.988281 3.570312 L 8.617188 8.367188 L 3.324219 9.136719 C 2.933594 9.199219 2.734375 9.359375 2.734375 9.621094 C 2.734375 9.769531 2.824219 9.9375 3 10.125 L 6.835938 13.859375 L 5.929688 19.128906 C 5.914062 19.226562 5.90625 19.296875 5.90625 19.339844 C 5.90625 19.488281 5.945312 19.609375 6.019531 19.714844 C 6.089844 19.816406 6.203125 19.867188 6.351562 19.867188 C 6.476562 19.867188 6.617188 19.824219 6.773438 19.738281 L 11.503906 17.253906 L 16.238281 19.738281 C 16.382812 19.824219 16.523438 19.867188 16.660156 19.867188 C 16.800781 19.867188 16.90625 19.816406 16.980469 19.714844 C 17.054688 19.613281 17.089844 19.488281 17.089844 19.339844 C 17.089844 19.246094 17.085938 19.175781 17.078125 19.128906 L 16.171875 13.859375 L 20 10.125 C 20.183594 9.945312 20.273438 9.773438 20.273438 9.621094 "/>
</g>
</svg>
